# xmcd
#
# Track frame offsets: 
#        150
#        26476
#        42368
#        58113
#        68795
#        88689
#        104074
#        119276
#        133288
#        146932
#        160138
#        178432
#        193137
#
# Disc length: 2709 seconds
#
# Revision: 1
# Processed by: cddbd v1.5.2PL0 Copyright (c) Steve Scherf et al.
# Submitted via: ExactAudioCopy v0.99pb5
#
DISCID=ce0a930d
DTITLE=BOZEN BRASS QUINTET - Blues for Brass
DYEAR=1998
DGENRE=Blues
TTITLE0=01 Early Days
TTITLE1=02 Blues
TTITLE2=03 Fiesta
TTITLE3=04 Blues March
TTITLE4=05 Meditation Blues
TTITLE5=06 The Dog Gone Blues
TTITLE6=07 Kraken
TTITLE7=08 Blues for Brass
TTITLE8=09 Relax In Brass
TTITLE9=10 The Tubaduba Blues
TTITLE10=11 Summertime
TTITLE11=12 Money, Money
TTITLE12=13 Munich Brass Boogie
EXTD=
EXTT0=
EXTT1=
EXTT2=
EXTT3=
EXTT4=
EXTT5=
EXTT6=
EXTT7=
EXTT8=
EXTT9=
EXTT10=
EXTT11=
EXTT12=
PLAYORDER=
